<svg class="rich-terminal" viewBox="0 0 1360 830.8" xmlns="http://www.w3.org/2000/svg">
    <!-- Generated with Rich https://www.textualize.io -->
    <style>

    @font-face {
        font-family: "Fira Code";
        src: local("FiraCode-Regular"),
                url("https://cdnjs.cloudflare.com/ajax/libs/firacode/6.2.0/woff2/FiraCode-Regular.woff2") format("woff2"),
                url("https://cdnjs.cloudflare.com/ajax/libs/firacode/6.2.0/woff/FiraCode-Regular.woff") format("woff");
        font-style: normal;
        font-weight: 400;
    }
    @font-face {
        font-family: "Fira Code";
        src: local("FiraCode-Bold"),
                url("https://cdnjs.cloudflare.com/ajax/libs/firacode/6.2.0/woff2/FiraCode-Bold.woff2") format("woff2"),
                url("https://cdnjs.cloudflare.com/ajax/libs/firacode/6.2.0/woff/FiraCode-Bold.woff") format("woff");
        font-style: bold;
        font-weight: 700;
    }

    .terminal-3448604713-matrix {
        font-family: Fira Code, monospace;
        font-size: 20px;
        line-height: 24.4px;
        font-variant-east-asian: full-width;
    }

    .terminal-3448604713-title {
        font-size: 18px;
        font-weight: bold;
        font-family: arial;
    }

    .terminal-3448604713-r1 { fill: #c5c8c6 }
.terminal-3448604713-r2 { fill: #e0e0e0 }
.terminal-3448604713-r3 { fill: #c5c6c7 }
.terminal-3448604713-r4 { fill: #ddedf9;font-weight: bold }
.terminal-3448604713-r5 { fill: #797979 }
.terminal-3448604713-r6 { fill: #4f4f4f }
.terminal-3448604713-r7 { fill: #0178d4 }
.terminal-3448604713-r8 { fill: #fea62b }
.terminal-3448604713-r9 { fill: #737373 }
.terminal-3448604713-r10 { fill: #0178d4;font-weight: bold }
.terminal-3448604713-r11 { fill: #a7abaf }
.terminal-3448604713-r12 { fill: #ffa62b;font-weight: bold }
.terminal-3448604713-r13 { fill: #495259 }
    </style>

    <defs>
    <clipPath id="terminal-3448604713-clip-terminal">
      <rect x="0" y="0" width="1341.0" height="779.8" />
    </clipPath>
    <clipPath id="terminal-3448604713-line-0">
    <rect x="0" y="1.5" width="1342" height="24.65"/>
            </clipPath>
<clipPath id="terminal-3448604713-line-1">
    <rect x="0" y="25.9" width="1342" height="24.65"/>
            </clipPath>
<clipPath id="terminal-3448604713-line-2">
    <rect x="0" y="50.3" width="1342" height="24.65"/>
            </clipPath>
<clipPath id="terminal-3448604713-line-3">
    <rect x="0" y="74.7" width="1342" height="24.65"/>
            </clipPath>
<clipPath id="terminal-3448604713-line-4">
    <rect x="0" y="99.1" width="1342" height="24.65"/>
            </clipPath>
<clipPath id="terminal-3448604713-line-5">
    <rect x="0" y="123.5" width="1342" height="24.65"/>
            </clipPath>
<clipPath id="terminal-3448604713-line-6">
    <rect x="0" y="147.9" width="1342" height="24.65"/>
            </clipPath>
<clipPath id="terminal-3448604713-line-7">
    <rect x="0" y="172.3" width="1342" height="24.65"/>
            </clipPath>
<clipPath id="terminal-3448604713-line-8">
    <rect x="0" y="196.7" width="1342" height="24.65"/>
            </clipPath>
<clipPath id="terminal-3448604713-line-9">
    <rect x="0" y="221.1" width="1342" height="24.65"/>
            </clipPath>
<clipPath id="terminal-3448604713-line-10">
    <rect x="0" y="245.5" width="1342" height="24.65"/>
            </clipPath>
<clipPath id="terminal-3448604713-line-11">
    <rect x="0" y="269.9" width="1342" height="24.65"/>
            </clipPath>
<clipPath id="terminal-3448604713-line-12">
    <rect x="0" y="294.3" width="1342" height="24.65"/>
            </clipPath>
<clipPath id="terminal-3448604713-line-13">
    <rect x="0" y="318.7" width="1342" height="24.65"/>
            </clipPath>
<clipPath id="terminal-3448604713-line-14">
    <rect x="0" y="343.1" width="1342" height="24.65"/>
            </clipPath>
<clipPath id="terminal-3448604713-line-15">
    <rect x="0" y="367.5" width="1342" height="24.65"/>
            </clipPath>
<clipPath id="terminal-3448604713-line-16">
    <rect x="0" y="391.9" width="1342" height="24.65"/>
            </clipPath>
<clipPath id="terminal-3448604713-line-17">
    <rect x="0" y="416.3" width="1342" height="24.65"/>
            </clipPath>
<clipPath id="terminal-3448604713-line-18">
    <rect x="0" y="440.7" width="1342" height="24.65"/>
            </clipPath>
<clipPath id="terminal-3448604713-line-19">
    <rect x="0" y="465.1" width="1342" height="24.65"/>
            </clipPath>
<clipPath id="terminal-3448604713-line-20">
    <rect x="0" y="489.5" width="1342" height="24.65"/>
            </clipPath>
<clipPath id="terminal-3448604713-line-21">
    <rect x="0" y="513.9" width="1342" height="24.65"/>
            </clipPath>
<clipPath id="terminal-3448604713-line-22">
    <rect x="0" y="538.3" width="1342" height="24.65"/>
            </clipPath>
<clipPath id="terminal-3448604713-line-23">
    <rect x="0" y="562.7" width="1342" height="24.65"/>
            </clipPath>
<clipPath id="terminal-3448604713-line-24">
    <rect x="0" y="587.1" width="1342" height="24.65"/>
            </clipPath>
<clipPath id="terminal-3448604713-line-25">
    <rect x="0" y="611.5" width="1342" height="24.65"/>
            </clipPath>
<clipPath id="terminal-3448604713-line-26">
    <rect x="0" y="635.9" width="1342" height="24.65"/>
            </clipPath>
<clipPath id="terminal-3448604713-line-27">
    <rect x="0" y="660.3" width="1342" height="24.65"/>
            </clipPath>
<clipPath id="terminal-3448604713-line-28">
    <rect x="0" y="684.7" width="1342" height="24.65"/>
            </clipPath>
<clipPath id="terminal-3448604713-line-29">
    <rect x="0" y="709.1" width="1342" height="24.65"/>
            </clipPath>
<clipPath id="terminal-3448604713-line-30">
    <rect x="0" y="733.5" width="1342" height="24.65"/>
            </clipPath>
    </defs>

    <rect fill="#292929" stroke="rgba(255,255,255,0.35)" stroke-width="1" x="1" y="1" width="1358" height="828.8" rx="8"/><text class="terminal-3448604713-title" fill="#c5c8c6" text-anchor="middle" x="679" y="27">kissterm</text>
            <g transform="translate(26,22)">
            <circle cx="0" cy="0" r="7" fill="#ff5f57"/>
            <circle cx="22" cy="0" r="7" fill="#febc2e"/>
            <circle cx="44" cy="0" r="7" fill="#28c840"/>
            </g>
        
    <g transform="translate(9, 41)" clip-path="url(#terminal-3448604713-clip-terminal)">
    <rect fill="#242f38" x="0" y="1.5" width="12.2" height="24.65" shape-rendering="crispEdges"/><rect fill="#242f38" x="12.2" y="1.5" width="12.2" height="24.65" shape-rendering="crispEdges"/><rect fill="#242f38" x="24.4" y="1.5" width="61" height="24.65" shape-rendering="crispEdges"/><rect fill="#242f38" x="85.4" y="1.5" width="12.2" height="24.65" shape-rendering="crispEdges"/><rect fill="#242f38" x="97.6" y="1.5" width="512.4" height="24.65" shape-rendering="crispEdges"/><rect fill="#242f38" x="610" y="1.5" width="97.6" height="24.65" shape-rendering="crispEdges"/><rect fill="#242f38" x="707.6" y="1.5" width="512.4" height="24.65" shape-rendering="crispEdges"/><rect fill="#2c363f" x="1220" y="1.5" width="12.2" height="24.65" shape-rendering="crispEdges"/><rect fill="#2c363f" x="1232.2" y="1.5" width="97.6" height="24.65" shape-rendering="crispEdges"/><rect fill="#2c363f" x="1329.8" y="1.5" width="12.2" height="24.65" shape-rendering="crispEdges"/><rect fill="#0178d4" x="0" y="25.9" width="12.2" height="24.65" shape-rendering="crispEdges"/><rect fill="#0178d4" x="12.2" y="25.9" width="158.6" height="24.65" shape-rendering="crispEdges"/><rect fill="#0178d4" x="170.8" y="25.9" width="12.2" height="24.65" shape-rendering="crispEdges"/><rect fill="#121212" x="183" y="25.9" width="12.2" height="24.65" shape-rendering="crispEdges"/><rect fill="#121212" x="195.2" y="25.9" width="146.4" height="24.65" shape-rendering="crispEdges"/><rect fill="#121212" x="341.6" y="25.9" width="12.2" height="24.65" shape-rendering="crispEdges"/><rect fill="#121212" x="353.8" y="25.9" width="12.2" height="24.65" shape-rendering="crispEdges"/><rect fill="#121212" x="366" y="25.9" width="122" height="24.65" shape-rendering="crispEdges"/><rect fill="#121212" x="488" y="25.9" width="12.2" height="24.65" shape-rendering="crispEdges"/><rect fill="#121212" x="500.2" y="25.9" width="12.2" height="24.65" shape-rendering="crispEdges"/><rect fill="#121212" x="512.4" y="25.9" width="109.8" height="24.65" shape-rendering="crispEdges"/><rect fill="#121212" x="622.2" y="25.9" width="12.2" height="24.65" shape-rendering="crispEdges"/><rect fill="#121212" x="634.4" y="25.9" width="12.2" height="24.65" shape-rendering="crispEdges"/><rect fill="#121212" x="646.6" y="25.9" width="97.6" height="24.65" shape-rendering="crispEdges"/><rect fill="#121212" x="744.2" y="25.9" width="12.2" height="24.65" shape-rendering="crispEdges"/><rect fill="#121212" x="756.4" y="25.9" width="585.6" height="24.65" shape-rendering="crispEdges"/><rect fill="#121212" x="0" y="50.3" width="12.2" height="24.65" shape-rendering="crispEdges"/><rect fill="#121212" x="12.2" y="50.3" width="158.6" height="24.65" shape-rendering="crispEdges"/><rect fill="#121212" x="170.8" y="50.3" width="12.2" height="24.65" shape-rendering="crispEdges"/><rect fill="#121212" x="183" y="50.3" width="1159" height="24.65" shape-rendering="crispEdges"/><rect fill="#1e1e1e" x="0" y="74.7" width="12.2" height="24.65" shape-rendering="crispEdges"/><rect fill="#1e1e1e" x="12.2" y="74.7" width="1317.6" height="24.65" shape-rendering="crispEdges"/><rect fill="#1e1e1e" x="1329.8" y="74.7" width="12.2" height="24.65" shape-rendering="crispEdges"/><rect fill="#1e1e1e" x="0" y="99.1" width="12.2" height="24.65" shape-rendering="crispEdges"/><rect fill="#1e1e1e" x="12.2" y="99.1" width="646.6" height="24.65" shape-rendering="crispEdges"/><rect fill="#1e1e1e" x="658.8" y="99.1" width="646.6" height="24.65" shape-rendering="crispEdges"/><rect fill="#000000" x="1305.4" y="99.1" width="24.4" height="24.65" shape-rendering="crispEdges"/><rect fill="#1e1e1e" x="1329.8" y="99.1" width="12.2" height="24.65" shape-rendering="crispEdges"/><rect fill="#1e1e1e" x="0" y="123.5" width="12.2" height="24.65" shape-rendering="crispEdges"/><rect fill="#1e1e1e" x="12.2" y="123.5" width="1293.2" height="24.65" shape-rendering="crispEdges"/><rect fill="#000000" x="1305.4" y="123.5" width="24.4" height="24.65" shape-rendering="crispEdges"/><rect fill="#1e1e1e" x="1329.8" y="123.5" width="12.2" height="24.65" shape-rendering="crispEdges"/><rect fill="#1e1e1e" x="0" y="147.9" width="12.2" height="24.65" shape-rendering="crispEdges"/><rect fill="#1e1e1e" x="12.2" y="147.9" width="329.4" height="24.65" shape-rendering="crispEdges"/><rect fill="#1e1e1e" x="341.6" y="147.9" width="963.8" height="24.65" shape-rendering="crispEdges"/><rect fill="#000000" x="1305.4" y="147.9" width="24.4" height="24.65" shape-rendering="crispEdges"/><rect fill="#1e1e1e" x="1329.8" y="147.9" width="12.2" height="24.65" shape-rendering="crispEdges"/><rect fill="#1e1e1e" x="0" y="172.3" width="12.2" height="24.65" shape-rendering="crispEdges"/><rect fill="#1e1e1e" x="12.2" y="172.3" width="158.6" height="24.65" shape-rendering="crispEdges"/><rect fill="#1e1e1e" x="170.8" y="172.3" width="1134.6" height="24.65" shape-rendering="crispEdges"/><rect fill="#000000" x="1305.4" y="172.3" width="24.4" height="24.65" shape-rendering="crispEdges"/><rect fill="#1e1e1e" x="1329.8" y="172.3" width="12.2" height="24.65" shape-rendering="crispEdges"/><rect fill="#1e1e1e" x="0" y="196.7" width="12.2" height="24.65" shape-rendering="crispEdges"/><rect fill="#1e1e1e" x="12.2" y="196.7" width="1293.2" height="24.65" shape-rendering="crispEdges"/><rect fill="#000000" x="1305.4" y="196.7" width="24.4" height="24.65" shape-rendering="crispEdges"/><rect fill="#1e1e1e" x="1329.8" y="196.7" width="12.2" height="24.65" shape-rendering="crispEdges"/><rect fill="#1e1e1e" x="0" y="221.1" width="12.2" height="24.65" shape-rendering="crispEdges"/><rect fill="#1e1e1e" x="12.2" y="221.1" width="414.8" height="24.65" shape-rendering="crispEdges"/><rect fill="#1e1e1e" x="427" y="221.1" width="878.4" height="24.65" shape-rendering="crispEdges"/><rect fill="#000000" x="1305.4" y="221.1" width="24.4" height="24.65" shape-rendering="crispEdges"/><rect fill="#1e1e1e" x="1329.8" y="221.1" width="12.2" height="24.65" shape-rendering="crispEdges"/><rect fill="#1e1e1e" x="0" y="245.5" width="12.2" height="24.65" shape-rendering="crispEdges"/><rect fill="#1e1e1e" x="12.2" y="245.5" width="475.8" height="24.65" shape-rendering="crispEdges"/><rect fill="#1e1e1e" x="488" y="245.5" width="817.4" height="24.65" shape-rendering="crispEdges"/><rect fill="#000000" x="1305.4" y="245.5" width="24.4" height="24.65" shape-rendering="crispEdges"/><rect fill="#1e1e1e" x="1329.8" y="245.5" width="12.2" height="24.65" shape-rendering="crispEdges"/><rect fill="#1e1e1e" x="0" y="269.9" width="12.2" height="24.65" shape-rendering="crispEdges"/><rect fill="#1e1e1e" x="12.2" y="269.9" width="573.4" height="24.65" shape-rendering="crispEdges"/><rect fill="#1e1e1e" x="585.6" y="269.9" width="719.8" height="24.65" shape-rendering="crispEdges"/><rect fill="#000000" x="1305.4" y="269.9" width="24.4" height="24.65" shape-rendering="crispEdges"/><rect fill="#1e1e1e" x="1329.8" y="269.9" width="12.2" height="24.65" shape-rendering="crispEdges"/><rect fill="#1e1e1e" x="0" y="294.3" width="12.2" height="24.65" shape-rendering="crispEdges"/><rect fill="#1e1e1e" x="12.2" y="294.3" width="1293.2" height="24.65" shape-rendering="crispEdges"/><rect fill="#000000" x="1305.4" y="294.3" width="24.4" height="24.65" shape-rendering="crispEdges"/><rect fill="#1e1e1e" x="1329.8" y="294.3" width="12.2" height="24.65" shape-rendering="crispEdges"/><rect fill="#1e1e1e" x="0" y="318.7" width="12.2" height="24.65" shape-rendering="crispEdges"/><rect fill="#1e1e1e" x="12.2" y="318.7" width="195.2" height="24.65" shape-rendering="crispEdges"/><rect fill="#1e1e1e" x="207.4" y="318.7" width="1098" height="24.65" shape-rendering="crispEdges"/><rect fill="#000000" x="1305.4" y="318.7" width="24.4" height="24.65" shape-rendering="crispEdges"/><rect fill="#1e1e1e" x="1329.8" y="318.7" width="12.2" height="24.65" shape-rendering="crispEdges"/><rect fill="#1e1e1e" x="0" y="343.1" width="12.2" height="24.65" shape-rendering="crispEdges"/><rect fill="#1e1e1e" x="12.2" y="343.1" width="683.2" height="24.65" shape-rendering="crispEdges"/><rect fill="#1e1e1e" x="695.4" y="343.1" width="610" height="24.65" shape-rendering="crispEdges"/><rect fill="#000000" x="1305.4" y="343.1" width="24.4" height="24.65" shape-rendering="crispEdges"/><rect fill="#1e1e1e" x="1329.8" y="343.1" width="12.2" height="24.65" shape-rendering="crispEdges"/><rect fill="#1e1e1e" x="0" y="367.5" width="12.2" height="24.65" shape-rendering="crispEdges"/><rect fill="#1e1e1e" x="12.2" y="367.5" width="439.2" height="24.65" shape-rendering="crispEdges"/><rect fill="#1e1e1e" x="451.4" y="367.5" width="854" height="24.65" shape-rendering="crispEdges"/><rect fill="#000000" x="1305.4" y="367.5" width="24.4" height="24.65" shape-rendering="crispEdges"/><rect fill="#1e1e1e" x="1329.8" y="367.5" width="12.2" height="24.65" shape-rendering="crispEdges"/><rect fill="#1e1e1e" x="0" y="391.9" width="12.2" height="24.65" shape-rendering="crispEdges"/><rect fill="#1e1e1e" x="12.2" y="391.9" width="1293.2" height="24.65" shape-rendering="crispEdges"/><rect fill="#000000" x="1305.4" y="391.9" width="24.4" height="24.65" shape-rendering="crispEdges"/><rect fill="#1e1e1e" x="1329.8" y="391.9" width="12.2" height="24.65" shape-rendering="crispEdges"/><rect fill="#1e1e1e" x="0" y="416.3" width="12.2" height="24.65" shape-rendering="crispEdges"/><rect fill="#1e1e1e" x="12.2" y="416.3" width="195.2" height="24.65" shape-rendering="crispEdges"/><rect fill="#1e1e1e" x="207.4" y="416.3" width="1098" height="24.65" shape-rendering="crispEdges"/><rect fill="#000000" x="1305.4" y="416.3" width="24.4" height="24.65" shape-rendering="crispEdges"/><rect fill="#1e1e1e" x="1329.8" y="416.3" width="12.2" height="24.65" shape-rendering="crispEdges"/><rect fill="#1e1e1e" x="0" y="440.7" width="12.2" height="24.65" shape-rendering="crispEdges"/><rect fill="#1e1e1e" x="12.2" y="440.7" width="73.2" height="24.65" shape-rendering="crispEdges"/><rect fill="#1e1e1e" x="85.4" y="440.7" width="1220" height="24.65" shape-rendering="crispEdges"/><rect fill="#000000" x="1305.4" y="440.7" width="24.4" height="24.65" shape-rendering="crispEdges"/><rect fill="#1e1e1e" x="1329.8" y="440.7" width="12.2" height="24.65" shape-rendering="crispEdges"/><rect fill="#1e1e1e" x="0" y="465.1" width="12.2" height="24.65" shape-rendering="crispEdges"/><rect fill="#1e1e1e" x="12.2" y="465.1" width="610" height="24.65" shape-rendering="crispEdges"/><rect fill="#1e1e1e" x="622.2" y="465.1" width="683.2" height="24.65" shape-rendering="crispEdges"/><rect fill="#000000" x="1305.4" y="465.1" width="24.4" height="24.65" shape-rendering="crispEdges"/><rect fill="#1e1e1e" x="1329.8" y="465.1" width="12.2" height="24.65" shape-rendering="crispEdges"/><rect fill="#1e1e1e" x="0" y="489.5" width="12.2" height="24.65" shape-rendering="crispEdges"/><rect fill="#1e1e1e" x="12.2" y="489.5" width="610" height="24.65" shape-rendering="crispEdges"/><rect fill="#1e1e1e" x="622.2" y="489.5" width="683.2" height="24.65" shape-rendering="crispEdges"/><rect fill="#000000" x="1305.4" y="489.5" width="24.4" height="24.65" shape-rendering="crispEdges"/><rect fill="#1e1e1e" x="1329.8" y="489.5" width="12.2" height="24.65" shape-rendering="crispEdges"/><rect fill="#1e1e1e" x="0" y="513.9" width="12.2" height="24.65" shape-rendering="crispEdges"/><rect fill="#1e1e1e" x="12.2" y="513.9" width="1293.2" height="24.65" shape-rendering="crispEdges"/><rect fill="#000000" x="1305.4" y="513.9" width="24.4" height="24.65" shape-rendering="crispEdges"/><rect fill="#1e1e1e" x="1329.8" y="513.9" width="12.2" height="24.65" shape-rendering="crispEdges"/><rect fill="#1e1e1e" x="0" y="538.3" width="12.2" height="24.65" shape-rendering="crispEdges"/><rect fill="#1e1e1e" x="12.2" y="538.3" width="183" height="24.65" shape-rendering="crispEdges"/><rect fill="#1e1e1e" x="195.2" y="538.3" width="1110.2" height="24.65" shape-rendering="crispEdges"/><rect fill="#000000" x="1305.4" y="538.3" width="24.4" height="24.65" shape-rendering="crispEdges"/><rect fill="#1e1e1e" x="1329.8" y="538.3" width="12.2" height="24.65" shape-rendering="crispEdges"/><rect fill="#1e1e1e" x="0" y="562.7" width="12.2" height="24.65" shape-rendering="crispEdges"/><rect fill="#1e1e1e" x="12.2" y="562.7" width="1293.2" height="24.65" shape-rendering="crispEdges"/><rect fill="#000000" x="1305.4" y="562.7" width="24.4" height="24.65" shape-rendering="crispEdges"/><rect fill="#1e1e1e" x="1329.8" y="562.7" width="12.2" height="24.65" shape-rendering="crispEdges"/><rect fill="#1e1e1e" x="0" y="587.1" width="12.2" height="24.65" shape-rendering="crispEdges"/><rect fill="#1e1e1e" x="12.2" y="587.1" width="1293.2" height="24.65" shape-rendering="crispEdges"/><rect fill="#000000" x="1305.4" y="587.1" width="24.4" height="24.65" shape-rendering="crispEdges"/><rect fill="#1e1e1e" x="1329.8" y="587.1" width="12.2" height="24.65" shape-rendering="crispEdges"/><rect fill="#1e1e1e" x="0" y="611.5" width="12.2" height="24.65" shape-rendering="crispEdges"/><rect fill="#1e1e1e" x="12.2" y="611.5" width="1293.2" height="24.65" shape-rendering="crispEdges"/><rect fill="#000000" x="1305.4" y="611.5" width="24.4" height="24.65" shape-rendering="crispEdges"/><rect fill="#1e1e1e" x="1329.8" y="611.5" width="12.2" height="24.65" shape-rendering="crispEdges"/><rect fill="#1e1e1e" x="0" y="635.9" width="12.2" height="24.65" shape-rendering="crispEdges"/><rect fill="#1e1e1e" x="12.2" y="635.9" width="1317.6" height="24.65" shape-rendering="crispEdges"/><rect fill="#1e1e1e" x="1329.8" y="635.9" width="12.2" height="24.65" shape-rendering="crispEdges"/><rect fill="#1e1e1e" x="0" y="660.3" width="12.2" height="24.65" shape-rendering="crispEdges"/><rect fill="#1e1e1e" x="12.2" y="660.3" width="1183.4" height="24.65" shape-rendering="crispEdges"/><rect fill="#1e1e1e" x="1195.6" y="660.3" width="12.2" height="24.65" shape-rendering="crispEdges"/><rect fill="#121212" x="1207.8" y="660.3" width="12.2" height="24.65" shape-rendering="crispEdges"/><rect fill="#1e1e1e" x="1220" y="660.3" width="12.2" height="24.65" shape-rendering="crispEdges"/><rect fill="#1e1e1e" x="1232.2" y="660.3" width="97.6" height="24.65" shape-rendering="crispEdges"/><rect fill="#1e1e1e" x="1329.8" y="660.3" width="12.2" height="24.65" shape-rendering="crispEdges"/><rect fill="#1e1e1e" x="0" y="684.7" width="12.2" height="24.65" shape-rendering="crispEdges"/><rect fill="#1e1e1e" x="12.2" y="684.7" width="24.4" height="24.65" shape-rendering="crispEdges"/><rect fill="#1e1e1e" x="36.6" y="684.7" width="231.8" height="24.65" shape-rendering="crispEdges"/><rect fill="#1e1e1e" x="268.4" y="684.7" width="902.8" height="24.65" shape-rendering="crispEdges"/><rect fill="#1e1e1e" x="1171.2" y="684.7" width="24.4" height="24.65" shape-rendering="crispEdges"/><rect fill="#1e1e1e" x="1195.6" y="684.7" width="12.2" height="24.65" shape-rendering="crispEdges"/><rect fill="#121212" x="1207.8" y="684.7" width="12.2" height="24.65" shape-rendering="crispEdges"/><rect fill="#1e1e1e" x="1220" y="684.7" width="12.2" height="24.65" shape-rendering="crispEdges"/><rect fill="#1e1e1e" x="1232.2" y="684.7" width="12.2" height="24.65" shape-rendering="crispEdges"/><rect fill="#1e1e1e" x="1244.4" y="684.7" width="73.2" height="24.65" shape-rendering="crispEdges"/><rect fill="#1e1e1e" x="1317.6" y="684.7" width="12.2" height="24.65" shape-rendering="crispEdges"/><rect fill="#1e1e1e" x="1329.8" y="684.7" width="12.2" height="24.65" shape-rendering="crispEdges"/><rect fill="#1e1e1e" x="0" y="709.1" width="12.2" height="24.65" shape-rendering="crispEdges"/><rect fill="#1e1e1e" x="12.2" y="709.1" width="1183.4" height="24.65" shape-rendering="crispEdges"/><rect fill="#1e1e1e" x="1195.6" y="709.1" width="12.2" height="24.65" shape-rendering="crispEdges"/><rect fill="#121212" x="1207.8" y="709.1" width="12.2" height="24.65" shape-rendering="crispEdges"/><rect fill="#1e1e1e" x="1220" y="709.1" width="12.2" height="24.65" shape-rendering="crispEdges"/><rect fill="#1e1e1e" x="1232.2" y="709.1" width="97.6" height="24.65" shape-rendering="crispEdges"/><rect fill="#1e1e1e" x="1329.8" y="709.1" width="12.2" height="24.65" shape-rendering="crispEdges"/><rect fill="#242f38" x="0" y="733.5" width="12.2" height="24.65" shape-rendering="crispEdges"/><rect fill="#242f38" x="12.2" y="733.5" width="732" height="24.65" shape-rendering="crispEdges"/><rect fill="#242f38" x="744.2" y="733.5" width="585.6" height="24.65" shape-rendering="crispEdges"/><rect fill="#242f38" x="1329.8" y="733.5" width="12.2" height="24.65" shape-rendering="crispEdges"/><rect fill="#242f38" x="0" y="757.9" width="48.8" height="24.65" shape-rendering="crispEdges"/><rect fill="#242f38" x="48.8" y="757.9" width="61" height="24.65" shape-rendering="crispEdges"/><rect fill="#242f38" x="109.8" y="757.9" width="48.8" height="24.65" shape-rendering="crispEdges"/><rect fill="#242f38" x="158.6" y="757.9" width="97.6" height="24.65" shape-rendering="crispEdges"/><rect fill="#242f38" x="256.2" y="757.9" width="48.8" height="24.65" shape-rendering="crispEdges"/><rect fill="#242f38" x="305" y="757.9" width="134.2" height="24.65" shape-rendering="crispEdges"/><rect fill="#242f38" x="439.2" y="757.9" width="48.8" height="24.65" shape-rendering="crispEdges"/><rect fill="#242f38" x="488" y="757.9" width="109.8" height="24.65" shape-rendering="crispEdges"/><rect fill="#242f38" x="597.8" y="757.9" width="48.8" height="24.65" shape-rendering="crispEdges"/><rect fill="#242f38" x="646.6" y="757.9" width="109.8" height="24.65" shape-rendering="crispEdges"/><rect fill="#242f38" x="756.4" y="757.9" width="439.2" height="24.65" shape-rendering="crispEdges"/><rect fill="#242f38" x="1195.6" y="757.9" width="12.2" height="24.65" shape-rendering="crispEdges"/><rect fill="#242f38" x="1207.8" y="757.9" width="24.4" height="24.65" shape-rendering="crispEdges"/><rect fill="#242f38" x="1232.2" y="757.9" width="97.6" height="24.65" shape-rendering="crispEdges"/><rect fill="#242f38" x="1329.8" y="757.9" width="12.2" height="24.65" shape-rendering="crispEdges"/>
    <g class="terminal-3448604713-matrix">
    <text class="terminal-3448604713-r2" x="12.2" y="20" textLength="12.2" clip-path="url(#terminal-3448604713-line-0)">⭘</text><text class="terminal-3448604713-r2" x="610" y="20" textLength="97.6" clip-path="url(#terminal-3448604713-line-0)">kissterm</text><text class="terminal-3448604713-r3" x="1232.2" y="20" textLength="97.6" clip-path="url(#terminal-3448604713-line-0)">00:15:26</text><text class="terminal-3448604713-r1" x="1342" y="20" textLength="12.2" clip-path="url(#terminal-3448604713-line-0)">
</text><text class="terminal-3448604713-r4" x="12.2" y="44.4" textLength="158.6" clip-path="url(#terminal-3448604713-line-1)">Terminal&#160;(F1)</text><text class="terminal-3448604713-r5" x="195.2" y="44.4" textLength="146.4" clip-path="url(#terminal-3448604713-line-1)">Monitor&#160;(F2)</text><text class="terminal-3448604713-r5" x="366" y="44.4" textLength="122" clip-path="url(#terminal-3448604713-line-1)">Heard&#160;(F3)</text><text class="terminal-3448604713-r5" x="512.4" y="44.4" textLength="109.8" clip-path="url(#terminal-3448604713-line-1)">APRS&#160;(F4)</text><text class="terminal-3448604713-r5" x="646.6" y="44.4" textLength="97.6" clip-path="url(#terminal-3448604713-line-1)">Settings</text><text class="terminal-3448604713-r1" x="1342" y="44.4" textLength="12.2" clip-path="url(#terminal-3448604713-line-1)">
</text><text class="terminal-3448604713-r6" x="0" y="68.8" textLength="12.2" clip-path="url(#terminal-3448604713-line-2)">╸</text><text class="terminal-3448604713-r7" x="12.2" y="68.8" textLength="158.6" clip-path="url(#terminal-3448604713-line-2)">━━━━━━━━━━━━━</text><text class="terminal-3448604713-r6" x="170.8" y="68.8" textLength="12.2" clip-path="url(#terminal-3448604713-line-2)">╺</text><text class="terminal-3448604713-r6" x="183" y="68.8" textLength="1159" clip-path="url(#terminal-3448604713-line-2)">━━━━━━━━━━━━━━━━━━━━━━━━━━━━━━━━━━━━━━━━━━━━━━━━━━━━━━━━━━━━━━━━━━━━━━━━━━━━━━━━━━━━━━━━━━━━━━━</text><text class="terminal-3448604713-r1" x="1342" y="68.8" textLength="12.2" clip-path="url(#terminal-3448604713-line-2)">
</text><text class="terminal-3448604713-r7" x="0" y="93.2" textLength="12.2" clip-path="url(#terminal-3448604713-line-3)">╭</text><text class="terminal-3448604713-r7" x="12.2" y="93.2" textLength="1317.6" clip-path="url(#terminal-3448604713-line-3)">────────────────────────────────────────────────────────────────────────────────────────────────────────────</text><text class="terminal-3448604713-r7" x="1329.8" y="93.2" textLength="12.2" clip-path="url(#terminal-3448604713-line-3)">╮</text><text class="terminal-3448604713-r1" x="1342" y="93.2" textLength="12.2" clip-path="url(#terminal-3448604713-line-3)">
</text><text class="terminal-3448604713-r7" x="0" y="117.6" textLength="12.2" clip-path="url(#terminal-3448604713-line-4)">│</text><text class="terminal-3448604713-r2" x="12.2" y="117.6" textLength="646.6" clip-path="url(#terminal-3448604713-line-4)">kissterm&#160;0.1.6&#160;--&#160;Ctrl+N&#160;to&#160;connect,&#160;Ctrl+H&#160;for&#160;help.</text><text class="terminal-3448604713-r7" x="1329.8" y="117.6" textLength="12.2" clip-path="url(#terminal-3448604713-line-4)">│</text><text class="terminal-3448604713-r1" x="1342" y="117.6" textLength="12.2" clip-path="url(#terminal-3448604713-line-4)">
</text><text class="terminal-3448604713-r7" x="0" y="142" textLength="12.2" clip-path="url(#terminal-3448604713-line-5)">│</text><text class="terminal-3448604713-r7" x="1329.8" y="142" textLength="12.2" clip-path="url(#terminal-3448604713-line-5)">│</text><text class="terminal-3448604713-r1" x="1342" y="142" textLength="12.2" clip-path="url(#terminal-3448604713-line-5)">
</text><text class="terminal-3448604713-r7" x="0" y="166.4" textLength="12.2" clip-path="url(#terminal-3448604713-line-6)">│</text><text class="terminal-3448604713-r2" x="12.2" y="166.4" textLength="329.4" clip-path="url(#terminal-3448604713-line-6)">***&#160;Connecting&#160;to&#160;W1AW-7...</text><text class="terminal-3448604713-r7" x="1329.8" y="166.4" textLength="12.2" clip-path="url(#terminal-3448604713-line-6)">│</text><text class="terminal-3448604713-r1" x="1342" y="166.4" textLength="12.2" clip-path="url(#terminal-3448604713-line-6)">
</text><text class="terminal-3448604713-r7" x="0" y="190.8" textLength="12.2" clip-path="url(#terminal-3448604713-line-7)">│</text><text class="terminal-3448604713-r2" x="12.2" y="190.8" textLength="158.6" clip-path="url(#terminal-3448604713-line-7)">***&#160;connected</text><text class="terminal-3448604713-r7" x="1329.8" y="190.8" textLength="12.2" clip-path="url(#terminal-3448604713-line-7)">│</text><text class="terminal-3448604713-r1" x="1342" y="190.8" textLength="12.2" clip-path="url(#terminal-3448604713-line-7)">
</text><text class="terminal-3448604713-r7" x="0" y="215.2" textLength="12.2" clip-path="url(#terminal-3448604713-line-8)">│</text><text class="terminal-3448604713-r7" x="1329.8" y="215.2" textLength="12.2" clip-path="url(#terminal-3448604713-line-8)">│</text><text class="terminal-3448604713-r1" x="1342" y="215.2" textLength="12.2" clip-path="url(#terminal-3448604713-line-8)">
</text><text class="terminal-3448604713-r7" x="0" y="239.6" textLength="12.2" clip-path="url(#terminal-3448604713-line-9)">│</text><text class="terminal-3448604713-r2" x="12.2" y="239.6" textLength="414.8" clip-path="url(#terminal-3448604713-line-9)">[W1AW-7]&#160;BPQ32&#160;Node&#160;&#160;W1AW-7:W1AW-1</text><text class="terminal-3448604713-r7" x="1329.8" y="239.6" textLength="12.2" clip-path="url(#terminal-3448604713-line-9)">│</text><text class="terminal-3448604713-r1" x="1342" y="239.6" textLength="12.2" clip-path="url(#terminal-3448604713-line-9)">
</text><text class="terminal-3448604713-r7" x="0" y="264" textLength="12.2" clip-path="url(#terminal-3448604713-line-10)">│</text><text class="terminal-3448604713-r2" x="12.2" y="264" textLength="475.8" clip-path="url(#terminal-3448604713-line-10)">Welcome&#160;to&#160;the&#160;W1AW&#160;packet&#160;node,&#160;N1ABC.</text><text class="terminal-3448604713-r7" x="1329.8" y="264" textLength="12.2" clip-path="url(#terminal-3448604713-line-10)">│</text><text class="terminal-3448604713-r1" x="1342" y="264" textLength="12.2" clip-path="url(#terminal-3448604713-line-10)">
</text><text class="terminal-3448604713-r7" x="0" y="288.4" textLength="12.2" clip-path="url(#terminal-3448604713-line-11)">│</text><text class="terminal-3448604713-r2" x="12.2" y="288.4" textLength="573.4" clip-path="url(#terminal-3448604713-line-11)">Type&#160;?&#160;for&#160;a&#160;list&#160;of&#160;commands,&#160;B&#160;to&#160;disconnect.</text><text class="terminal-3448604713-r7" x="1329.8" y="288.4" textLength="12.2" clip-path="url(#terminal-3448604713-line-11)">│</text><text class="terminal-3448604713-r1" x="1342" y="288.4" textLength="12.2" clip-path="url(#terminal-3448604713-line-11)">
</text><text class="terminal-3448604713-r7" x="0" y="312.8" textLength="12.2" clip-path="url(#terminal-3448604713-line-12)">│</text><text class="terminal-3448604713-r7" x="1329.8" y="312.8" textLength="12.2" clip-path="url(#terminal-3448604713-line-12)">│</text><text class="terminal-3448604713-r1" x="1342" y="312.8" textLength="12.2" clip-path="url(#terminal-3448604713-line-12)">
</text><text class="terminal-3448604713-r7" x="0" y="337.2" textLength="12.2" clip-path="url(#terminal-3448604713-line-13)">│</text><text class="terminal-3448604713-r2" x="12.2" y="337.2" textLength="195.2" clip-path="url(#terminal-3448604713-line-13)">W1AW-7:W1AW-1}&#160;?</text><text class="terminal-3448604713-r7" x="1329.8" y="337.2" textLength="12.2" clip-path="url(#terminal-3448604713-line-13)">│</text><text class="terminal-3448604713-r1" x="1342" y="337.2" textLength="12.2" clip-path="url(#terminal-3448604713-line-13)">
</text><text class="terminal-3448604713-r7" x="0" y="361.6" textLength="12.2" clip-path="url(#terminal-3448604713-line-14)">│</text><text class="terminal-3448604713-r2" x="12.2" y="361.6" textLength="683.2" clip-path="url(#terminal-3448604713-line-14)">Commands:&#160;BBS&#160;CHAT&#160;CONNECT&#160;INFO&#160;NODES&#160;PORTS&#160;ROUTES&#160;USERS</text><text class="terminal-3448604713-r7" x="1329.8" y="361.6" textLength="12.2" clip-path="url(#terminal-3448604713-line-14)">│</text><text class="terminal-3448604713-r1" x="1342" y="361.6" textLength="12.2" clip-path="url(#terminal-3448604713-line-14)">
</text><text class="terminal-3448604713-r7" x="0" y="386" textLength="12.2" clip-path="url(#terminal-3448604713-line-15)">│</text><text class="terminal-3448604713-r2" x="12.2" y="386" textLength="439.2" clip-path="url(#terminal-3448604713-line-15)">&#160;&#160;&#160;&#160;&#160;&#160;&#160;&#160;&#160;&#160;MHEARD&#160;PING&#160;STATS&#160;TALK&#160;BYE</text><text class="terminal-3448604713-r7" x="1329.8" y="386" textLength="12.2" clip-path="url(#terminal-3448604713-line-15)">│</text><text class="terminal-3448604713-r1" x="1342" y="386" textLength="12.2" clip-path="url(#terminal-3448604713-line-15)">
</text><text class="terminal-3448604713-r7" x="0" y="410.4" textLength="12.2" clip-path="url(#terminal-3448604713-line-16)">│</text><text class="terminal-3448604713-r7" x="1329.8" y="410.4" textLength="12.2" clip-path="url(#terminal-3448604713-line-16)">│</text><text class="terminal-3448604713-r1" x="1342" y="410.4" textLength="12.2" clip-path="url(#terminal-3448604713-line-16)">
</text><text class="terminal-3448604713-r7" x="0" y="434.8" textLength="12.2" clip-path="url(#terminal-3448604713-line-17)">│</text><text class="terminal-3448604713-r2" x="12.2" y="434.8" textLength="195.2" clip-path="url(#terminal-3448604713-line-17)">W1AW-7:W1AW-1}&#160;u</text><text class="terminal-3448604713-r7" x="1329.8" y="434.8" textLength="12.2" clip-path="url(#terminal-3448604713-line-17)">│</text><text class="terminal-3448604713-r1" x="1342" y="434.8" textLength="12.2" clip-path="url(#terminal-3448604713-line-17)">
</text><text class="terminal-3448604713-r7" x="0" y="459.2" textLength="12.2" clip-path="url(#terminal-3448604713-line-18)">│</text><text class="terminal-3448604713-r2" x="12.2" y="459.2" textLength="73.2" clip-path="url(#terminal-3448604713-line-18)">Users:</text><text class="terminal-3448604713-r7" x="1329.8" y="459.2" textLength="12.2" clip-path="url(#terminal-3448604713-line-18)">│</text><text class="terminal-3448604713-r1" x="1342" y="459.2" textLength="12.2" clip-path="url(#terminal-3448604713-line-18)">
</text><text class="terminal-3448604713-r7" x="0" y="483.6" textLength="12.2" clip-path="url(#terminal-3448604713-line-19)">│</text><text class="terminal-3448604713-r2" x="12.2" y="483.6" textLength="610" clip-path="url(#terminal-3448604713-line-19)">&#160;&#160;N1ABC-1&#160;&#160;connected&#160;00:04&#160;&#160;port&#160;1&#160;(144.390&#160;1200b)</text><text class="terminal-3448604713-r7" x="1329.8" y="483.6" textLength="12.2" clip-path="url(#terminal-3448604713-line-19)">│</text><text class="terminal-3448604713-r1" x="1342" y="483.6" textLength="12.2" clip-path="url(#terminal-3448604713-line-19)">
</text><text class="terminal-3448604713-r7" x="0" y="508" textLength="12.2" clip-path="url(#terminal-3448604713-line-20)">│</text><text class="terminal-3448604713-r2" x="12.2" y="508" textLength="610" clip-path="url(#terminal-3448604713-line-20)">&#160;&#160;KC1XYZ&#160;&#160;&#160;connected&#160;01:12&#160;&#160;port&#160;1&#160;(144.390&#160;1200b)</text><text class="terminal-3448604713-r7" x="1329.8" y="508" textLength="12.2" clip-path="url(#terminal-3448604713-line-20)">│</text><text class="terminal-3448604713-r1" x="1342" y="508" textLength="12.2" clip-path="url(#terminal-3448604713-line-20)">
</text><text class="terminal-3448604713-r7" x="0" y="532.4" textLength="12.2" clip-path="url(#terminal-3448604713-line-21)">│</text><text class="terminal-3448604713-r7" x="1329.8" y="532.4" textLength="12.2" clip-path="url(#terminal-3448604713-line-21)">│</text><text class="terminal-3448604713-r1" x="1342" y="532.4" textLength="12.2" clip-path="url(#terminal-3448604713-line-21)">
</text><text class="terminal-3448604713-r7" x="0" y="556.8" textLength="12.2" clip-path="url(#terminal-3448604713-line-22)">│</text><text class="terminal-3448604713-r2" x="12.2" y="556.8" textLength="183" clip-path="url(#terminal-3448604713-line-22)">W1AW-7:W1AW-1}&#160;</text><text class="terminal-3448604713-r7" x="1329.8" y="556.8" textLength="12.2" clip-path="url(#terminal-3448604713-line-22)">│</text><text class="terminal-3448604713-r1" x="1342" y="556.8" textLength="12.2" clip-path="url(#terminal-3448604713-line-22)">
</text><text class="terminal-3448604713-r7" x="0" y="581.2" textLength="12.2" clip-path="url(#terminal-3448604713-line-23)">│</text><text class="terminal-3448604713-r7" x="1329.8" y="581.2" textLength="12.2" clip-path="url(#terminal-3448604713-line-23)">│</text><text class="terminal-3448604713-r1" x="1342" y="581.2" textLength="12.2" clip-path="url(#terminal-3448604713-line-23)">
</text><text class="terminal-3448604713-r7" x="0" y="605.6" textLength="12.2" clip-path="url(#terminal-3448604713-line-24)">│</text><text class="terminal-3448604713-r7" x="1329.8" y="605.6" textLength="12.2" clip-path="url(#terminal-3448604713-line-24)">│</text><text class="terminal-3448604713-r1" x="1342" y="605.6" textLength="12.2" clip-path="url(#terminal-3448604713-line-24)">
</text><text class="terminal-3448604713-r7" x="0" y="630" textLength="12.2" clip-path="url(#terminal-3448604713-line-25)">│</text><text class="terminal-3448604713-r7" x="1329.8" y="630" textLength="12.2" clip-path="url(#terminal-3448604713-line-25)">│</text><text class="terminal-3448604713-r1" x="1342" y="630" textLength="12.2" clip-path="url(#terminal-3448604713-line-25)">
</text><text class="terminal-3448604713-r7" x="0" y="654.4" textLength="12.2" clip-path="url(#terminal-3448604713-line-26)">╰</text><text class="terminal-3448604713-r7" x="12.2" y="654.4" textLength="1317.6" clip-path="url(#terminal-3448604713-line-26)">────────────────────────────────────────────────────────────────────────────────────────────────────────────</text><text class="terminal-3448604713-r7" x="1329.8" y="654.4" textLength="12.2" clip-path="url(#terminal-3448604713-line-26)">╯</text><text class="terminal-3448604713-r1" x="1342" y="654.4" textLength="12.2" clip-path="url(#terminal-3448604713-line-26)">
</text><text class="terminal-3448604713-r8" x="0" y="678.8" textLength="12.2" clip-path="url(#terminal-3448604713-line-27)">╭</text><text class="terminal-3448604713-r8" x="12.2" y="678.8" textLength="1183.4" clip-path="url(#terminal-3448604713-line-27)">─────────────────────────────────────────────────────────────────────────────────────────────────</text><text class="terminal-3448604713-r8" x="1195.6" y="678.8" textLength="12.2" clip-path="url(#terminal-3448604713-line-27)">╮</text><text class="terminal-3448604713-r7" x="1220" y="678.8" textLength="12.2" clip-path="url(#terminal-3448604713-line-27)">╭</text><text class="terminal-3448604713-r7" x="1232.2" y="678.8" textLength="97.6" clip-path="url(#terminal-3448604713-line-27)">────────</text><text class="terminal-3448604713-r7" x="1329.8" y="678.8" textLength="12.2" clip-path="url(#terminal-3448604713-line-27)">╮</text><text class="terminal-3448604713-r1" x="1342" y="678.8" textLength="12.2" clip-path="url(#terminal-3448604713-line-27)">
</text><text class="terminal-3448604713-r8" x="0" y="703.2" textLength="12.2" clip-path="url(#terminal-3448604713-line-28)">│</text><text class="terminal-3448604713-r9" x="36.6" y="703.2" textLength="231.8" clip-path="url(#terminal-3448604713-line-28)">connected&#160;to&#160;W1AW-7</text><text class="terminal-3448604713-r8" x="1195.6" y="703.2" textLength="12.2" clip-path="url(#terminal-3448604713-line-28)">│</text><text class="terminal-3448604713-r7" x="1220" y="703.2" textLength="12.2" clip-path="url(#terminal-3448604713-line-28)">│</text><text class="terminal-3448604713-r10" x="1244.4" y="703.2" textLength="73.2" clip-path="url(#terminal-3448604713-line-28)">&#160;Send&#160;</text><text class="terminal-3448604713-r7" x="1329.8" y="703.2" textLength="12.2" clip-path="url(#terminal-3448604713-line-28)">│</text><text class="terminal-3448604713-r1" x="1342" y="703.2" textLength="12.2" clip-path="url(#terminal-3448604713-line-28)">
</text><text class="terminal-3448604713-r8" x="0" y="727.6" textLength="12.2" clip-path="url(#terminal-3448604713-line-29)">╰</text><text class="terminal-3448604713-r8" x="12.2" y="727.6" textLength="1183.4" clip-path="url(#terminal-3448604713-line-29)">─────────────────────────────────────────────────────────────────────────────────────────────────</text><text class="terminal-3448604713-r8" x="1195.6" y="727.6" textLength="12.2" clip-path="url(#terminal-3448604713-line-29)">╯</text><text class="terminal-3448604713-r7" x="1220" y="727.6" textLength="12.2" clip-path="url(#terminal-3448604713-line-29)">╰</text><text class="terminal-3448604713-r7" x="1232.2" y="727.6" textLength="97.6" clip-path="url(#terminal-3448604713-line-29)">────────</text><text class="terminal-3448604713-r7" x="1329.8" y="727.6" textLength="12.2" clip-path="url(#terminal-3448604713-line-29)">╯</text><text class="terminal-3448604713-r1" x="1342" y="727.6" textLength="12.2" clip-path="url(#terminal-3448604713-line-29)">
</text><text class="terminal-3448604713-r11" x="12.2" y="752" textLength="732" clip-path="url(#terminal-3448604713-line-30)">kissterm&#160;0.1.6&#160;&#160;|&#160;&#160;192.168.1.40:8001&#160;&#160;|&#160;&#160;N1ABC-1&#160;&#160;|&#160;&#160;heard&#160;6</text><text class="terminal-3448604713-r1" x="1342" y="752" textLength="12.2" clip-path="url(#terminal-3448604713-line-30)">
</text><text class="terminal-3448604713-r12" x="0" y="776.4" textLength="48.8" clip-path="url(#terminal-3448604713-line-31)">&#160;^q&#160;</text><text class="terminal-3448604713-r2" x="48.8" y="776.4" textLength="61" clip-path="url(#terminal-3448604713-line-31)">Quit&#160;</text><text class="terminal-3448604713-r12" x="109.8" y="776.4" textLength="48.8" clip-path="url(#terminal-3448604713-line-31)">&#160;^n&#160;</text><text class="terminal-3448604713-r2" x="158.6" y="776.4" textLength="97.6" clip-path="url(#terminal-3448604713-line-31)">Connect&#160;</text><text class="terminal-3448604713-r12" x="256.2" y="776.4" textLength="48.8" clip-path="url(#terminal-3448604713-line-31)">&#160;^d&#160;</text><text class="terminal-3448604713-r2" x="305" y="776.4" textLength="134.2" clip-path="url(#terminal-3448604713-line-31)">Disconnect&#160;</text><text class="terminal-3448604713-r12" x="439.2" y="776.4" textLength="48.8" clip-path="url(#terminal-3448604713-line-31)">&#160;^k&#160;</text><text class="terminal-3448604713-r2" x="488" y="776.4" textLength="109.8" clip-path="url(#terminal-3448604713-line-31)">Callsign&#160;</text><text class="terminal-3448604713-r12" x="597.8" y="776.4" textLength="48.8" clip-path="url(#terminal-3448604713-line-31)">&#160;f5&#160;</text><text class="terminal-3448604713-r2" x="646.6" y="776.4" textLength="109.8" clip-path="url(#terminal-3448604713-line-31)">Commands&#160;</text><text class="terminal-3448604713-r13" x="1195.6" y="776.4" textLength="12.2" clip-path="url(#terminal-3448604713-line-31)">▏</text><text class="terminal-3448604713-r12" x="1207.8" y="776.4" textLength="24.4" clip-path="url(#terminal-3448604713-line-31)">^p</text><text class="terminal-3448604713-r2" x="1232.2" y="776.4" textLength="97.6" clip-path="url(#terminal-3448604713-line-31)">&#160;palette</text>
    </g>
    </g>
</svg>
